1.8Hz3min_grf.mot
version=1
nRows=25
nColumns 19
inDegrees=yes
endheader
time	1_ground_force_vx	1_ground_force_vy	1_ground_force_vz	1_ground_force_px	1_ground_force_py	1_ground_force_pz	1_ground_torque_x	1_ground_torque_y	1_ground_torque_z	2_ground_force_vx	2_ground_force_vy	2_ground_force_vz	2_ground_force_px	2_ground_force_py	2_ground_force_pz	2_ground_torque_x	2_ground_torque_y	2_ground_torque_z
            3.751500	            6.056602	          214.959264	          -18.078223	           -0.207360	            0.005922	           -0.333954	           -0.024429	           -0.867030	            0.072918	            6.603013	          290.132023	           32.802603	           -0.198861	            0.006029	           -0.771442	            0.025174	            1.106116	            0.125058
            3.752000	            6.192696	          216.583648	          -18.530166	           -0.207236	            0.005921	           -0.333704	           -0.022290	           -0.779577	            0.066698	            6.411625	          291.236251	           32.806625	           -0.198936	            0.006028	           -0.771420	            0.025176	            1.143591	            0.128821
            3.752500	            6.236685	          216.767068	          -19.263202	           -0.207587	            0.005919	           -0.333430	           -0.021124	           -0.734211	            0.065246	            6.079168	          292.522941	           33.139861	           -0.199212	            0.006027	           -0.771314	            0.023629	            1.136997	            0.128810
            3.753000	            6.328059	          217.848877	          -19.304648	           -0.207171	            0.005920	           -0.333481	           -0.020851	           -0.717813	            0.063609	            5.656210	          292.889533	           33.188282	           -0.199112	            0.006028	           -0.771465	            0.021299	            1.102900	            0.124973
            3.753500	            6.464513	          218.751804	          -19.667971	           -0.207797	            0.005920	           -0.333667	           -0.022946	           -0.776458	            0.069811	            5.371185	          293.992921	           33.333129	           -0.198969	            0.006029	           -0.771513	            0.019608	            1.073260	            0.121687
            3.754000	            6.326137	          219.654286	          -19.938901	           -0.207780	            0.005921	           -0.333829	           -0.023655	           -0.821342	            0.074557	            5.084248	          295.648062	           33.667658	           -0.198966	            0.006028	           -0.771421	            0.018450	            1.072842	            0.122173
            3.754500	            6.508577	          221.638227	          -20.160133	           -0.207915	            0.005919	           -0.333264	           -0.026064	           -0.887562	            0.080732	            4.097180	          296.564376	           33.906002	           -0.199141	            0.006028	           -0.771562	            0.015054	            1.089614	            0.124575
            3.755000	            6.323953	          221.640354	          -20.664093	           -0.207939	            0.005921	           -0.333775	           -0.023880	           -0.836950	            0.078031	            3.903798	          298.221088	           33.911996	           -0.199429	            0.006027	           -0.771598	            0.013552	            1.035268	            0.117725
            3.755500	            6.322827	          223.444387	          -20.977354	           -0.207786	            0.005919	           -0.333446	           -0.022236	           -0.785801	            0.073772	            3.760487	          298.957980	           33.680043	           -0.199139	            0.006028	           -0.771374	            0.013378	            1.063581	            0.119821
            3.756000	            6.550592	          224.528188	          -21.477701	           -0.207764	            0.005922	           -0.334080	           -0.021320	           -0.730750	            0.069901	            3.147492	          300.060351	           33.778101	           -0.199137	            0.006029	           -0.771861	            0.011213	            1.068937	            0.120331
            3.756500	            6.320545	          225.971252	          -21.700228	           -0.208153	            0.005921	           -0.333868	           -0.021418	           -0.765735	            0.073534	            3.003763	          300.979376	           34.109943	           -0.199057	            0.006029	           -0.771614	            0.010785	            1.080674	            0.122473
            3.757000	            6.594773	          226.152947	          -22.021129	           -0.208404	            0.005922	           -0.334044	           -0.024157	           -0.828420	            0.080666	            2.578853	          301.898116	           34.254192	           -0.199081	            0.006030	           -0.771873	            0.008850	            1.036086	            0.117557
            3.757500	            6.456705	          227.235104	          -22.153717	           -0.208230	            0.005921	           -0.333778	           -0.024371	           -0.857703	            0.083620	            2.151366	          303.552749	           34.588781	           -0.199138	            0.006029	           -0.771844	            0.007323	            1.033212	            0.117731
            3.758000	            6.225552	          228.499869	          -22.835576	           -0.208283	            0.005922	           -0.334050	           -0.025004	           -0.917723	            0.091714	            1.634023	          304.103371	           34.590972	           -0.199219	            0.006029	           -0.771837	            0.005861	            1.090700	            0.124064
            3.758500	            6.178697	          230.303696	          -23.102868	           -0.208866	            0.005921	           -0.333798	           -0.022831	           -0.851004	            0.085368	            1.209839	          304.837407	           34.875348	           -0.198916	            0.006031	           -0.771992	            0.004174	            1.051609	            0.120311
            3.759000	            6.314354	          231.208000	          -23.787184	           -0.208498	            0.005922	           -0.334178	           -0.020809	           -0.761936	            0.078390	            1.012450	          307.599131	           34.838355	           -0.198922	            0.006031	           -0.771998	            0.003618	            1.099198	            0.124494
            3.759500	            6.588402	          231.750423	          -24.152395	           -0.208491	            0.005923	           -0.334222	           -0.020509	           -0.721417	            0.075184	            0.683857	          307.781920	           34.886080	           -0.199232	            0.006030	           -0.772100	            0.002342	            1.053988	            0.119466
            3.760000	            6.678980	          232.833608	          -24.514832	           -0.208197	            0.005923	           -0.334248	           -0.021222	           -0.739814	            0.077894	            0.171269	          307.042660	           35.118311	           -0.199168	            0.006030	           -0.772080	            0.000606	            1.086160	            0.124231
            3.760500	            6.448118	          234.998915	          -25.009402	           -0.208844	            0.005921	           -0.333778	           -0.023304	           -0.849310	            0.090387	           -0.022009	          308.698473	           35.358945	           -0.199144	            0.006030	           -0.772110	           -0.000073	            1.030749	            0.118064
            3.761000	            6.401571	          236.982418	          -25.138354	           -0.208986	            0.005921	           -0.333937	           -0.023502	           -0.870030	            0.092290	           -0.214644	          310.170314	           35.551994	           -0.199226	            0.006031	           -0.772344	           -0.000685	            0.989190	            0.113382
            3.761500	            6.400121	          238.066175	          -25.638131	           -0.208933	            0.005921	           -0.333824	           -0.022782	           -0.847421	            0.091262	           -0.782680	          311.824440	           35.886643	           -0.199420	            0.006029	           -0.772133	           -0.002603	            1.037135	            0.119360
            3.762000	            6.260700	          240.952758	          -26.175693	           -0.209995	            0.005921	           -0.333822	           -0.019974	           -0.768747	            0.083512	           -1.021479	          313.111803	           36.125983	           -0.199265	            0.006030	           -0.772089	           -0.003473	            1.064666	            0.122838
            3.762500	            6.122910	          241.133390	          -26.266291	           -0.209791	            0.005922	           -0.334086	           -0.018776	           -0.739425	            0.080544	           -1.164002	          313.663550	           36.174942	           -0.199431	            0.006029	           -0.772079	           -0.003827	            1.031247	            0.118934
            3.763000	            6.441511	          244.381184	          -26.941013	           -0.209275	            0.005921	           -0.333929	           -0.019168	           -0.727194	            0.080167	           -1.542665	          314.766098	           36.460612	           -0.199197	            0.006031	           -0.772419	           -0.005160	            1.052810	            0.121951
            3.763500	            6.577279	          246.546758	          -27.482349	           -0.209539	            0.005918	           -0.333256	           -0.019380	           -0.726453	            0.080977	           -1.688470	          316.238275	           36.606713	           -0.199392	            0.006030	           -0.772349	           -0.005352	            1.002483	            0.116044
